<?xml version="1.0" encoding="UTF-8"?>
<svg version="1.1" xmlns="http://www.w3.org/2000/svg" width="80" height="76">
<path d="M0 0 C1.07607513 -0.00788544 1.07607513 -0.00788544 2.17388916 -0.01593018 C4.54583492 -0.02913686 6.91710988 -0.02039017 9.2890625 -0.01025391 C10.93668751 -0.01227446 12.58431165 -0.01518574 14.23193359 -0.01895142 C17.68530796 -0.02337566 21.13844956 -0.01694062 24.59179688 -0.00292969 C29.0206861 0.01416241 33.44902996 0.00432175 37.87789917 -0.01364708 C41.28023394 -0.0244823 44.68243919 -0.02103981 48.08477783 -0.0132637 C49.71787582 -0.01126096 51.35098552 -0.01372357 52.98406982 -0.02070236 C55.26573888 -0.02831274 57.54652202 -0.0167195 59.828125 0 C61.7764624 0.00358017 61.7764624 0.00358017 63.76416016 0.00723267 C66.9140625 0.38818359 66.9140625 0.38818359 68.8316803 1.55088806 C70.36655528 4.15626991 70.30254734 6.15584034 70.31811523 9.1730957 C70.33079941 10.36120346 70.34348358 11.54931122 70.35655212 12.77342224 C70.35361649 14.05781693 70.35068085 15.34221161 70.34765625 16.66552734 C70.3528981 17.9835585 70.35813995 19.30158966 70.36354065 20.65956116 C70.37247521 23.44965175 70.37004535 26.23945617 70.36010742 29.02954102 C70.3486215 32.60206995 70.36881982 36.17360989 70.39802456 39.74600887 C70.42080317 43.15673413 70.41391936 46.5672278 70.41015625 49.97802734 C70.42139023 51.2603978 70.43262421 52.54276825 70.44419861 53.86399841 C70.43012718 55.65088829 70.43012718 55.65088829 70.41577148 57.47387695 C70.41560532 58.52183945 70.41543915 59.56980194 70.41526794 60.64952087 C69.78476605 64.09467906 68.63685927 65.25043021 65.9140625 67.38818359 C62.97274359 68.36862323 61.08904585 68.50439561 58.02734375 68.48583984 C57.08955078 68.48261719 56.15175781 68.47939453 55.18554688 68.47607422 C53.72084961 68.46350586 53.72084961 68.46350586 52.2265625 68.45068359 C51.23849609 68.44617188 50.25042969 68.44166016 49.23242188 68.43701172 C46.79290776 68.42522663 44.35351561 68.40877371 41.9140625 68.38818359 C42.2440625 69.70818359 42.5740625 71.02818359 42.9140625 72.38818359 C44.8940625 72.38818359 46.8740625 72.38818359 48.9140625 72.38818359 C48.9140625 73.70818359 48.9140625 75.02818359 48.9140625 76.38818359 C36.3740625 76.38818359 23.8340625 76.38818359 10.9140625 76.38818359 C11.2440625 75.06818359 11.5740625 73.74818359 11.9140625 72.38818359 C13.8940625 72.38818359 15.8740625 72.38818359 17.9140625 72.38818359 C17.9140625 71.06818359 17.9140625 69.74818359 17.9140625 68.38818359 C17.30409424 68.40389404 16.69412598 68.41960449 16.06567383 68.43579102 C13.2860654 68.49838172 10.50660558 68.53724982 7.7265625 68.57568359 C6.76685547 68.60082031 5.80714844 68.62595703 4.81835938 68.65185547 C-4.03166443 68.74372423 -4.03166443 68.74372423 -8.0859375 65.38818359 C-10.7532222 62.72089889 -10.34428121 61.42742445 -10.3605957 57.70092773 C-10.37012772 56.50951675 -10.37965973 55.31810577 -10.38948059 54.09059143 C-10.38856918 52.79789841 -10.38765778 51.50520538 -10.38671875 50.17333984 C-10.39060461 48.83816901 -10.39493905 47.50299941 -10.39970398 46.16783142 C-10.40717124 43.36762487 -10.40687146 40.56754439 -10.40161133 37.76733398 C-10.39581771 34.17803517 -10.4127419 30.58925255 -10.435956 27.0000391 C-10.45068554 24.24194825 -10.45156612 21.48398191 -10.44844627 18.72585869 C-10.44920984 16.75879014 -10.46309114 14.79174091 -10.47712708 12.82472229 C-10.47089828 11.63015915 -10.46466949 10.43559601 -10.45825195 9.20483398 C-10.45888138 8.15163467 -10.4595108 7.09843536 -10.4601593 6.01332092 C-10.0859375 3.38818359 -10.0859375 3.38818359 -9.00553894 1.54890442 C-6.03478707 -0.24741303 -3.44706895 0.00633417 0 0 Z " fill="#FDBB5C" transform="translate(10.0859375,-0.38818359375)"/>
<path d="M0 0 C26.4 0 52.8 0 80 0 C80 9 80 9 78.1875 11.5 C74.79047952 13.82938547 72.12269434 14.12195572 68.11328125 14.09765625 C67.17548828 14.09443359 66.23769531 14.09121094 65.27148438 14.08789062 C64.29501953 14.07951172 63.31855469 14.07113281 62.3125 14.0625 C60.83040039 14.05573242 60.83040039 14.05573242 59.31835938 14.04882812 C56.87884526 14.03704303 54.43945311 14.02059011 52 14 C52.495 15.98 52.495 15.98 53 18 C54.98 18 56.96 18 59 18 C59 19.32 59 20.64 59 22 C46.46 22 33.92 22 21 22 C21.33 20.68 21.66 19.36 22 18 C23.98 18 25.96 18 28 18 C28 16.68 28 15.36 28 14 C27.39003174 14.01571045 26.78006348 14.0314209 26.15161133 14.04760742 C23.3720029 14.11019813 20.59254308 14.14906622 17.8125 14.1875 C16.85279297 14.21263672 15.89308594 14.23777344 14.90429688 14.26367188 C6.05427307 14.35554063 6.05427307 14.35554063 2 11 C1.34 10.34 0.68 9.68 0 9 C0 6.03 0 3.06 0 0 Z " fill="#7D4BFD" transform="translate(0,54)"/>
<path d="M0 0 C3.78771711 2.55259197 6.76283193 4.81443219 8.875 8.9375 C9.86775957 14.54809575 9.65615243 19.25501785 7.25 24.4375 C2.88062265 29.03684457 -0.21977633 31.17677176 -6.625 31.4375 C-12.87912913 31.19140808 -15.91011742 28.97279751 -20.4375 24.8125 C-23.22896094 20.05667766 -23.9028415 15.07062381 -22.56640625 9.6875 C-20.56997568 5.00254293 -17.71312117 2.22390124 -13.2734375 -0.21875 C-8.60985137 -2.05026746 -4.75055943 -1.61519021 0 0 Z " fill="#7A46FD" transform="translate(31.125,10.0625)"/>
<path d="M0 0 C3.17568542 1.65233922 5.37696485 3.75392971 7 7 C7.52137294 11.82911 7.73402673 15.74166846 5.25 20 C0.97856134 23.79683437 -2.79957816 24.68749023 -8.44921875 24.5703125 C-12.47342968 23.67056549 -14.36140003 21.5217437 -16.77734375 18.2890625 C-18.83554663 14.43568586 -18.76798466 12.32864083 -18 8 C-13.67486058 -0.05370789 -8.66690158 -1.24872619 0 0 Z " fill="#FC754F" transform="translate(64,22)"/>
<path d="M0 0 C1.07507812 -0.00128906 2.15015625 -0.00257812 3.2578125 -0.00390625 C4.38960937 -0.00003906 5.52140625 0.00382813 6.6875 0.0078125 C7.81929687 0.00394531 8.95109375 0.00007812 10.1171875 -0.00390625 C11.19226563 -0.00261719 12.26734375 -0.00132813 13.375 0 C14.86580078 0.00169189 14.86580078 0.00169189 16.38671875 0.00341797 C18.6875 0.1328125 18.6875 0.1328125 19.6875 1.1328125 C19.8125 4.6328125 19.8125 4.6328125 19.6875 8.1328125 C17.97182208 9.84849042 15.71377265 9.26297075 13.375 9.265625 C12.29992187 9.26691406 11.22484375 9.26820312 10.1171875 9.26953125 C8.98539063 9.26566406 7.85359375 9.26179688 6.6875 9.2578125 C5.55570313 9.26167969 4.42390625 9.26554687 3.2578125 9.26953125 C2.18273437 9.26824219 1.10765625 9.26695313 0 9.265625 C-0.99386719 9.26449707 -1.98773438 9.26336914 -3.01171875 9.26220703 C-5.3125 9.1328125 -5.3125 9.1328125 -6.3125 8.1328125 C-6.4375 4.6328125 -6.4375 4.6328125 -6.3125 1.1328125 C-4.59682208 -0.58286542 -2.33877265 0.00265425 0 0 Z " fill="#FFFEFD" transform="translate(52.3125,9.8671875)"/>
<path d="M0 0 C8.91 0 17.82 0 27 0 C27 0.99 27 1.98 27 3 C18.09 3 9.18 3 0 3 C0 2.01 0 1.02 0 0 Z " fill="#FEFEFE" transform="translate(11,44)"/>
<path d="M0 0 C1.98 0.495 1.98 0.495 4 1 C3.67 2.32 3.34 3.64 3 5 C1.68 5 0.36 5 -1 5 C-0.67 3.35 -0.34 1.7 0 0 Z " fill="#F1B06A" transform="translate(39,58)"/>
</svg>
